<?xml version="1.0" encoding="utf-8"?>
<!-- Generator: Adobe Illustrator 27.5.0, SVG Export Plug-In . SVG Version: 6.00 Build 0)  -->
<svg version="1.1" id="Layer_1" xmlns="http://www.w3.org/2000/svg" xmlns:xlink="http://www.w3.org/1999/xlink" x="0px" y="0px"
	 viewBox="0 0 45 45" style="enable-background:new 0 0 45 45;" xml:space="preserve">
<g>
	<path d="M18.2,14.8c-0.3,0.4-0.6,0.8-0.9,1.2c-0.8,1.2-1.7,2.3-2.5,3.5c-0.1,0.1-0.1,0.1-0.1,0.3c0.1,0.9-0.1,1.7-0.8,2.4
		c0,0,0,0-0.1,0c0.1,0.1,0.3,0.3,0.4,0.4c0.7,0.7,1.4,1.4,2.1,2.1c0.6,0.6,1.1,1.2,1.7,1.7c0.3,0.3,0.6,0.6,1,1
		c0.1,0.2,0.2,0.4,0.1,0.6s-0.3,0.3-0.6,0.3c-2,0-4,0-6.1,0c-1.2,0-2.3-0.9-2.5-2.1C10,25.9,10,25.6,10,25.4s0-0.6,0-0.8
		c0-0.6,0-1.3,0-1.8c0-0.3,0-0.6,0-1c0-0.1,0-0.1-0.1-0.1c-0.9-1.5-0.1-3.4,1.6-3.9c0.2-0.1,0.4-0.1,0.6-0.1c0.1,0,0.1,0,0.1-0.1
		c1.3-1.7,2.6-3.5,3.8-5.2c0-0.1,0.1-0.1,0.1-0.1c0.1-1,1-1.9,2.1-1.9c1.1-0.1,2.1,0.7,2.3,1.8c0.1,0.2,0,0.5,0,0.7
		c0,0.1,0,0.1,0.1,0.1c0.7,0.8,1.4,1.6,2,2.4c1.3,1.5,2.6,3,3.8,4.5c0.1,0.1,0.1,0.3,0.3,0.3c0.1,0.1,0.3,0,0.4,0c0.6,0,1.2,0,1.8,0
		c0.3,0,0.6,0.2,0.6,0.6c0,1.8,0,3.6,0,5.4c0,0.1,0,0.1,0,0.1c0.6,0,1.1,0,1.7,0c0-0.1,0-0.1,0-0.1c0-1.7,0-3.3,0-5.1
		c0-1.3,0.9-2.4,2.2-2.6c0.1,0,0.3-0.1,0.5,0c0.3,0,0.6,0.3,0.5,0.6c0,0.3-0.3,0.6-0.6,0.6c-0.6,0-1,0.3-1.3,0.8
		c-0.1,0.2-0.1,0.4-0.1,0.7c0,1.7,0,3.4,0,5.1v0.1c0.1,0,0.1,0,0.2,0c0.1,0,0.2,0,0.3,0c0.3,0.1,0.5,0.3,0.5,0.6c0,0.8,0,1.7,0,2.4
		c0,0.1,0,0.1,0.1,0.2c0.6,0.6,0.8,1.3,0.9,2.1c0.1,1.7-1.1,3.2-2.8,3.5c-0.2,0.1-0.4,0.1-0.6,0.1c-3.2,0-6.4,0-9.6,0
		c-1.6,0-2.9-1.1-3.3-2.6c-0.4-1.8,0.8-3.7,2.6-4c0,0,0,0,0.1,0c0.2,0,0.3-0.1,0.3-0.3c0.6-1.4,1.1-2.9,1.7-4.2c0-0.1,0-0.1,0-0.1
		c-0.6-1.3-1.3-2.5-1.9-3.8c-0.6-1.2-1.2-2.3-1.8-3.5C18.7,16,18.4,15.4,18.2,14.8C18.2,14.8,18.2,14.8,18.2,14.8z M26.2,34
		c1.6,0,3.2,0,4.9,0c0.1,0,0.3,0,0.4,0c1.2-0.2,1.9-1.3,1.8-2.4c-0.1-1.1-1-1.9-2.2-1.9c-3.2,0-6.3,0-9.5,0c-0.2,0-0.3,0-0.6,0
		c-1.1,0.2-1.9,1.2-1.9,2.3c0.1,1.2,1,2.1,2.2,2.1C23,34,24.6,34,26.2,34z M17.2,27.2c-0.4-0.4-0.8-0.9-1.3-1.3c-1-1-2-2.1-3-3.1
		c-0.1-0.1-0.1-0.1-0.2-0.1c-0.3,0.1-0.7,0.1-1.1,0c-0.1-0.1-0.3-0.1-0.6-0.1c0,0.3,0,0.5,0,0.8c0,0.8,0,1.5,0,2.3
		c0,0.8,0.6,1.5,1.5,1.5c1.5,0,3,0,4.5,0C17.1,27.2,17.2,27.2,17.2,27.2z M32.3,27.3c-0.1,0-0.1,0-0.1,0c-1,0-2.1,0-3.1,0
		c-0.1,0-0.1,0-0.2-0.1c-0.3-0.1-0.3-0.3-0.3-0.6c0-1.7,0-3.6,0-5.3c0-0.1,0-0.1,0-0.1c-0.1,0-0.1,0-0.1,0c-1,0-2.2,0-3.2,0
		c-0.1,0-0.1,0.1-0.1,0.1c-0.3,0.9-0.8,1.9-1.1,2.8c-0.6,1.4-1.1,2.8-1.7,4.1c0,0,0,0.1-0.1,0.1c0.1,0,0.1,0,0.1,0
		c2.9,0,5.8,0,8.7,0c0.3,0,0.6,0.1,0.8,0.1c0.1,0,0.3,0.1,0.4,0.1C32.3,28.2,32.3,27.8,32.3,27.3z M19.3,14.5
		c1.4,2.6,2.7,5.3,4.1,7.9c0-0.1,0-0.1,0-0.1c0.3-0.6,0.5-1.3,0.8-1.8c0.1-0.3,0.3-0.4,0.6-0.4c0.1,0,0.3,0,0.6,0
		C23.5,18.1,21.8,16,20,14C19.8,14.2,19.6,14.4,19.3,14.5z M10.7,20.2c0,0.8,0.6,1.5,1.5,1.5c0.8,0,1.4-0.6,1.4-1.4
		c0-0.8-0.6-1.5-1.4-1.5C11.3,18.8,10.7,19.4,10.7,20.2z M14.1,18.5c1-1.4,2-2.8,3-4.1c-0.2-0.2-0.3-0.3-0.6-0.6
		c-1,1.4-2.1,2.8-3.1,4.2C13.6,18.1,13.9,18.3,14.1,18.5z M19.5,12.5c0-0.6-0.5-1.1-1.1-1.1s-1.1,0.5-1.1,1.1c0,0.6,0.6,1,1,1
		C19,13.6,19.5,13.1,19.5,12.5z"/>
	<path d="M31,30c1,0.1,1.7,0.8,1.7,1.8c-0.1,1-0.8,1.7-1.8,1.7c-1-0.1-1.7-0.8-1.7-1.8C29.2,30.7,30.1,30,31,30z M31,32.3
		c0.3,0,0.6-0.3,0.6-0.6c0-0.3-0.3-0.6-0.6-0.6c-0.3,0-0.6,0.3-0.6,0.6C30.3,32.1,30.6,32.3,31,32.3z"/>
	<path d="M23.2,31.8c0,1-0.8,1.7-1.9,1.7c-1-0.1-1.7-0.9-1.6-1.8c0.1-1,0.9-1.7,1.9-1.6C22.6,30.1,23.3,30.9,23.2,31.8z M21.5,32.3
		c0.3,0,0.6-0.3,0.6-0.6c0-0.3-0.3-0.6-0.6-0.6c-0.3,0-0.6,0.3-0.6,0.6C21,32.1,21.2,32.3,21.5,32.3z"/>
	<path d="M26.2,30c0.9,0,1.7,0.7,1.8,1.6c0.1,1-0.7,1.8-1.7,1.8c-1,0.1-1.7-0.8-1.8-1.7C24.4,30.9,25.3,30,26.2,30z M26.2,32.3
		c0.3,0,0.6-0.3,0.6-0.6c0-0.3-0.3-0.6-0.6-0.6c-0.3,0-0.6,0.3-0.6,0.6C25.7,32.1,25.9,32.3,26.2,32.3z"/>
	<path d="M28.1,24.5c0,0.8,0,1.5,0,2.2c0,0.3-0.2,0.6-0.6,0.6c-1.2,0-2.4,0-3.6,0c-0.4,0-0.7-0.4-0.6-0.8c0.6-1.5,1.2-3,1.8-4.5
		c0.1-0.3,0.3-0.4,0.6-0.4c0.6,0,1.1,0,1.7,0c0.3,0,0.6,0.2,0.6,0.6C28.1,23,28.1,23.8,28.1,24.5z M27,26.2c0-1.1,0-2.2,0-3.4
		c-0.2,0-0.5,0-0.7,0c-0.1,0-0.1,0-0.1,0.1c-0.4,1-0.8,2.2-1.3,3.2c0,0,0,0.1-0.1,0.1C25.5,26.2,26.2,26.2,27,26.2z"/>
</g>
</svg>
