<?xml version="1.0" encoding="utf-8"?>
<!-- Generator: Adobe Illustrator 27.5.0, SVG Export Plug-In . SVG Version: 6.00 Build 0)  -->
<svg version="1.1" id="Layer_1" xmlns="http://www.w3.org/2000/svg" xmlns:xlink="http://www.w3.org/1999/xlink" x="0px" y="0px"
	 viewBox="0 0 45 45" style="enable-background:new 0 0 45 45;" xml:space="preserve">
<path d="M16.3,15.9c0.5-0.5,1.1-1,1.6-1.6c1.2,0.7,2.4,1.3,3.5,2c-0.1,0.5-0.2,1.1-0.4,1.6c-0.1,0.6-0.4,1.2-0.5,1.8
	c0,0.1-0.1,0.2-0.2,0.2c-0.4,0.2-0.6,0.5-0.8,0.8l-0.1,0.1c-1.2,0.4-2.3,0.6-3.5,1c-0.4-0.6-0.6-1.2-1-1.7c-0.4-0.6-0.6-1.1-1-1.7
	c-0.1-0.1,0-0.1,0-0.2c0.5-0.5,1-1,1.4-1.4c0.1,0.2,0.4,0.5,0.5,0.8c0.4,0.5,0.7,1.1,1,1.6c0,0.1,0.1,0.1,0.2,0.1
	c0.4-0.1,0.7-0.2,1.1-0.4l0.1-0.1c0.1-0.4,0.2-0.7,0.4-1.1c0-0.1,0-0.2-0.1-0.2C18,16.9,17.1,16.4,16.3,15.9
	C16.4,15.9,16.4,15.9,16.3,15.9z"/>
<path d="M29.9,19.4c0.1-0.1,0.1-0.1,0.2-0.2c0.2-0.1,0.5-0.1,0.7,0c0.2,0.2,0.2,0.5,0,0.7c-0.4,0.5-0.8,0.8-1.2,1.2
	c-0.2,0.2-0.5,0.1-0.7,0c-0.2-0.2-0.2-0.5,0-0.7l0.1-0.1c-0.4-0.2-0.8-0.6-1.3-0.7c-0.1,0-0.1,0-0.2,0c-0.4,0.1-0.6,0.1-0.8-0.1
	h-0.1c-1.3,1.4-2.7,2.9-4.1,4.2c-0.1-0.2-0.2-0.5-0.5-0.6c-0.2-0.1-0.4-0.2-0.6-0.5c1.3-1.4,2.7-2.9,4.1-4.3c-0.2-0.4-0.1-0.6,0-0.8
	c0.2-0.4,0.2-1-0.1-1.4c-0.4-0.6-1-0.8-1.7-1.1c-0.2-0.1-0.6-0.1-1-0.2c-0.1,0-0.1,0-0.2-0.1l0,0c0.1,0,0.1-0.1,0.2-0.1
	c0.7-0.2,1.6-0.1,2.3,0.1c0.8,0.4,1.6,0.8,2.3,1.3c0.7,0.6,1.3,1.2,1.8,1.9c0.1,0.2,0.4,0.6,0.2,1v0.1C29.8,19,29.8,19.2,29.9,19.4z
	"/>
<path d="M14.3,28.9c0-0.4,0.1-0.6,0.5-0.8c1.1-1,2.1-1.9,3.2-2.9c0.8-0.8,1.8-1.6,2.6-2.4c0.4-0.2,0.7-0.4,1.1-0.1
	c0.5,0.2,0.8,0.7,0.7,1.3c0,0.1-0.1,0.2-0.2,0.4c-1,1.1-1.8,2-2.7,3.1c-0.8,1-1.8,1.9-2.5,2.9c-0.4,0.5-1.2,0.5-1.6,0.1
	c-0.2-0.2-0.6-0.6-0.8-0.8C14.3,29.5,14.3,29.3,14.3,28.9z"/>
<path d="M23.8,22.7c0.7,0.7,1.6,1.4,2.3,2.1c1.2,1.1,2.3,2.1,3.5,3.1c0.1,0.1,0.1,0.2,0.2,0.2c0.1,0.1,0.1,0.2,0.1,0.4
	c-0.1,0.2-0.2,0.5-0.4,0.7c-0.4,0.4-0.7,0.8-1.2,1c-0.2,0.1-0.4,0.1-0.5-0.1c-0.6-0.7-1.3-1.4-1.9-2.1c-0.8-1-1.8-1.9-2.6-2.9
	c-0.2-0.2-0.4-0.5-0.6-0.7c0,0,0-0.1,0-0.2c0-0.1,0.1-0.2,0.1-0.5c0-0.1,0-0.2,0.1-0.2C23.1,23.3,23.5,23.1,23.8,22.7z M27.4,28.7
	c0,0.4,0.4,0.7,0.7,0.7c0.4,0,0.7-0.4,0.7-0.7c0-0.4-0.4-0.7-0.7-0.7S27.4,28.2,27.4,28.7z"/>
<path d="M21.1,20.1c0.4,0.4,0.8,0.7,1.2,1.1c-0.4,0.4-0.7,0.7-1.1,1.1c-0.1,0.1-0.4,0.2-0.5,0.2c-0.4-0.4-0.6-0.7-1-1.1
	C20.4,21.2,20.7,20.7,21.1,20.1z"/>
</svg>
