<?xml version="1.0" encoding="utf-8"?>
<!-- Generator: Adobe Illustrator 27.5.0, SVG Export Plug-In . SVG Version: 6.00 Build 0)  -->
<svg version="1.1" id="Layer_1" xmlns="http://www.w3.org/2000/svg" xmlns:xlink="http://www.w3.org/1999/xlink" x="0px" y="0px"
	 viewBox="0 0 45 45" style="enable-background:new 0 0 45 45;" xml:space="preserve">
<g id="YK1ErI.tif">
	<g>
		<path d="M35.4,35.7c-8.6,0-17.2,0-25.8,0c0-0.3,0-0.5,0-0.8c0.3,0,0.5,0,0.8,0c0-1.9,0-3.7,0-5.6c0.3,0,0.5,0,0.8,0
			c0,1.9,0,3.7,0,5.5c1,0,2,0,3,0c0-0.6,0.1-1.1,0-1.7c-0.1-0.7,0.1-1.3,0.7-1.7c0.1-0.1,0.2-0.2,0.2-0.4c0-1.4,0-2.9,0-4.3
			c0-0.2-0.1-0.3-0.2-0.4c-1.1-0.8-2.1-1.7-3.2-2.5c-0.1-0.1-0.3-0.1-0.5-0.2c0,1.6,0,3.2,0,4.8c-0.3,0-0.5,0-0.8,0
			c0-0.1,0-0.2,0-0.2c0-1.6,0-3.1,0-4.7c0-0.4,0.1-0.5,0.4-0.6c0-0.5,0-1.1,0-1.7c0.3,0,0.5,0,0.8,0c0,0.5,0,1.1,0,1.6
			c0.2,0.1,0.3,0.2,0.4,0.3c1.2,0.9,2.3,1.9,3.6,2.8c0.2,0.2,0.3,0.4,0.3,0.6c0,1.2,0,2.4,0,3.6c0,0.1,0,0.2,0,0.2
			c0,0,0.1,0,0.1,0.1c0.3-0.3,0.5-0.6,0.8-0.8c0.3-0.3,0.5-0.3,0.8,0c0.4,0.4,0.8,0.8,1.3,1.3c0-0.1,0-0.2,0-0.3c0-0.8,0-1.6,0-2.4
			c0-0.2,0.1-0.4,0.2-0.5c1-1.1,1.9-2.2,2.8-3.3c0.3-0.3,0.5-0.3,0.8,0c0.4,0.5,0.8,1.1,1.3,1.6c0.3-0.2,0.6-0.1,0.9-0.1
			c0,0.4,0,0.8,0,1.1c0,0.1,0.1,0.2,0.1,0.3c0.7,0.6,0.8,1.4,0.8,2.2c-0.1,1.7,0,3.3,0,5c0,0.1,0,0.2,0,0.3c0.3,0,0.6,0,1,0
			c0.1-0.4,0.2-0.8,0.3-1.2c0.1-0.5,0.2-0.5,0.7-0.5c0.2,0,0.4,0,0.7,0c0-4.5,0-8.8,0-13.3c-0.1,0-0.2,0-0.2,0c-0.7,0-1.4,0-2.2,0
			c-0.3,0-0.5-0.1-0.6-0.4c-0.5-1-1-1.9-1.4-2.8c-0.1-0.2-0.2-0.2-0.4-0.2c-1.7,0-3.4,0-5.1,0c0,0.5,0,1.1,0,1.7c0,0,0,0,0.1,0
			c0.5-0.1,0.8,0.2,1,0.7c0.2,0.5,0.4,1,0.6,1.4c0.1,0.2,0.1,0.4,0,0.6c-0.2,0.4-0.5,0.8-0.7,1.2c-0.2,0.3-0.4,0.5-0.7,0.4
			c-0.1,0-0.1,0-0.2,0c0,0.2,0,0.5,0,0.7c0,0.2-0.1,0.5-0.2,0.7c-0.3,0.2-0.5,0.5-0.8,0.8c-0.1,0.1-0.1,0.2-0.1,0.4
			c0.2,0.5,0.2,0.5,0.7,0.5c0.1,0,0.3,0,0.4,0c0-0.3,0-0.5,0-0.8c0.3,0,0.5,0,0.8,0c0,0.4,0,0.9,0,1.3c0,0.2-0.2,0.4-0.4,0.4
			c-0.6,0-1.1,0-1.7,0c-0.1,0-0.4-0.2-0.4-0.3c-0.2-0.4-0.3-0.8-0.4-1.3c-0.1-0.1,0.1-0.4,0.1-0.5c0.2-0.2,0.5-0.5,0.7-0.7
			c0.4-0.3,0.5-0.6,0.4-1l0,0c-0.5,0.1-0.8-0.2-1-0.6c-0.2-0.4-0.4-0.7-0.5-1c-0.2-0.2-0.2-0.5-0.1-0.8c0.2-0.5,0.5-1,0.7-1.6
			c0.1-0.3,0.3-0.5,0.7-0.5c0.1,0,0.1,0,0.2,0c0-0.3,0-0.6,0-0.8c0-0.3,0-0.5,0-0.8c-1.3,0-2.6,0-3.9,0c0-0.3,0-0.5,0-0.8
			c0.7,0,1.4,0,2.1,0c0-0.3,0-0.6,0-0.8c-1.7,0-3.5,0-5.3,0c0.1,0.2,0.2,0.5,0.4,0.8c0.1,0.1,0.2,0.1,0.2,0.1c0.5,0,1.1,0,1.6,0
			c0,0.3,0,0.5,0,0.8c-0.7,0-1.4,0-2.2,0c-0.1,0-0.3-0.1-0.4-0.2c-0.3-0.5-0.6-1.1-0.8-1.7c-0.2-0.3,0.1-0.6,0.4-0.7
			c0.2,0,0.5,0,0.8,0c0-0.1,0-0.3,0-0.4c0-0.2,0.2-0.4,0.4-0.4c1.7-0.2,3.5-0.4,5.2-0.6c1.8-0.2,3.7-0.4,5.5-0.6
			c1.8-0.2,3.7-0.4,5.5-0.6c0.8-0.1,1.6-0.2,2.3-0.3c0.1,0,0.2-0.1,0.2-0.2c0.2-0.2,0.3-0.5,0.4-0.7c0.5,0,1.1,0,1.6,0
			c0.2,0.2,0.3,0.4,0.2,0.6c-0.1,0.4,0.1,0.6,0.4,0.8c0.9,0.9,1.7,1.7,2.6,2.6c0,0.1,0,0.2,0,0.3c-0.2,0.5-0.5,1-0.8,1.5
			c-0.2,0.4-0.4,0.5-0.8,0.5c-0.6,0-1.3,0-1.9,0c0,2.9,0,5.7,0,8.6c-0.3,0-0.5,0-0.8,0c0-0.2,0-0.4,0-0.5c-0.1,0-0.1,0.1-0.1,0.1
			c-0.5,0.5-1,1.1-1.6,1.6c-0.1,0.1-0.1,0.1-0.1,0.1c0,0.6,0,1.2,0,1.9c0.5-0.5,0.8-0.9,1.3-1.4c0.2-0.2,0.6-0.5,0.4-1
			c0.3,0,0.6,0,0.9,0c0,2.4,0,4.9,0,7.3c0.2,0,0.5,0,0.7,0c0.3,0,0.4,0.1,0.5,0.4c0.1,0.4,0.2,0.8,0.4,1.3c0.6,0,1.2,0,1.8,0
			C35.4,35.2,35.4,35.4,35.4,35.7z M11.8,13.7C11.8,13.8,11.8,13.8,11.8,13.7C11.8,13.8,11.9,13.8,11.8,13.7
			c5.6,0.1,11.1,0.1,16.7,0.1c0.1,0,0.2-0.1,0.2-0.2c0.2-0.5,0.5-1.1,0.8-1.7c0-0.1,0-0.1,0-0.2C23.6,12.4,17.7,13.1,11.8,13.7z
			 M19.9,30.5c1.7,0,3.4,0,5.2,0c0-0.6,0-1.2,0-1.7c0-0.1-0.1-0.3-0.1-0.4c-0.8-1-1.5-2-2.3-2.9c-0.1-0.1-0.1-0.1-0.2-0.2
			c-0.8,1-1.6,1.9-2.5,2.8C20,28.1,20,28.2,20,28.2C19.9,29,19.9,29.7,19.9,30.5z M17,34.9c0-0.6,0-1.1,0-1.7c0.3,0,0.5,0,0.8,0
			c0,0.5,0,1.1,0,1.7c0.6,0,1.1,0,1.7,0c0-0.7,0-1.4,0-2.2c0-0.1-0.1-0.3-0.2-0.4c-0.6-0.6-1.2-1.2-1.8-1.8
			c-0.1-0.1-0.1-0.1-0.2-0.2c-0.7,0.7-1.4,1.4-2,2c-0.1,0.1-0.1,0.1-0.1,0.2c0,0.8,0,1.5,0,2.3C15.8,34.9,16.4,34.9,17,34.9z
			 M20.4,15.5c0.1,0,0.2,0,0.4,0c4.1,0,8.2,0,12.3,0c0.2,0,0.4,0,0.7,0c0.1,0,0.2-0.1,0.2-0.1c0.1-0.2,0.2-0.5,0.4-0.8
			c-4.6,0-9.3,0-13.9,0C20.4,14.9,20.4,15.2,20.4,15.5z M21.2,34.9c0-0.5,0-1.1,0-1.6c0-0.4,0.1-0.5,0.5-0.5c1,0,2,0,3,0
			c0.1,0,0.2,0,0.3,0c0-0.5,0-0.8,0-1.3c-1.7,0-3.4,0-5.2,0c0.1,0.2,0.1,0.3,0.2,0.4c0.2,0.2,0.3,0.4,0.3,0.7c0,0.3,0,0.7,0,1
			c0,0.5,0,0.9,0,1.4C20.6,34.9,20.9,34.9,21.2,34.9z M24.9,16.4c0.1,0.2,0.2,0.4,0.3,0.6c0.1,0.2,0.2,0.2,0.4,0.2
			c0.4,0,0.8,0,1.2,0c0,0.3,0,0.5,0,0.8c-0.3,0-0.7,0-1,0c0.1,0.3,0.2,0.5,0.4,0.8c0,0.1,0.1,0.1,0.1,0.1c0.7,0,1.4,0,2.2,0
			c0-0.9,0-1.7,0-2.6C27.3,16.4,26.2,16.4,24.9,16.4z M27.8,34.9c1.6,0,3.3,0,4.9,0c-0.1-0.3-0.1-0.5-0.2-0.8c-0.8,0-1.5,0-2.2,0
			c-0.7,0-1.5,0-2.2,0C27.9,34.3,27.9,34.6,27.8,34.9z M18.2,21.5c0.5,0.1,0.7-0.1,0.9-0.5c0.2-0.4,0.4-0.8,0.1-1.3
			C19,19.5,19,19.1,18.8,19c-0.2-0.1-0.6-0.1-0.9-0.1c-0.1,0-0.2,0.1-0.3,0.2c-0.1,0.2-0.2,0.5-0.3,0.7C17,20.2,17,20.5,17.3,21
			C17.5,21.4,17.7,21.7,18.2,21.5z M25.1,33.6c-1,0-2,0-3,0c0,0.4,0,0.8,0,1.3c1,0,2,0,3,0C25.1,34.4,25.1,34,25.1,33.6z M31.5,10.8
			c-0.1,0-0.2,0-0.4,0c-0.1,0-0.2,0.1-0.2,0.2c-0.4,0.9-0.8,1.7-1.2,2.6c0,0.1-0.1,0.1-0.1,0.2c0.7,0,1.3,0,1.9,0
			C31.5,12.8,31.5,11.8,31.5,10.8z M29.4,31.6c0.3-0.3,0.5-0.6,0.8-0.8c0.3-0.3,0.7-0.6,0.8-1c0.2-0.4,0.1-0.8,0.1-1.3
			c0-0.2,0-0.4,0-0.5c0-0.1,0-0.2,0-0.3c-0.5,0.6-1.1,1.2-1.6,1.7c-0.1,0.1-0.1,0.1-0.1,0.2C29.4,30.2,29.4,30.9,29.4,31.6z
			 M29.4,25c0.6-0.6,1.1-1.2,1.6-1.8c0.1-0.1,0.1-0.1,0.1-0.1c0-0.7,0-1.3,0-2C31,21,31,21,31,21c-0.5,0.5-1,1.1-1.6,1.7
			c-0.1,0.1-0.1,0.1-0.1,0.2C29.4,23.5,29.4,24.2,29.4,25z M31.1,17.7c-0.5,0.5-0.8,1-1.3,1.4c-0.4,0.3-0.5,0.7-0.4,1.1
			c0.1,0.4,0,0.8,0,1.3c0.6-0.7,1.1-1.2,1.6-1.8c0.1-0.1,0.1-0.1,0.1-0.2C31.1,19,31.1,18.4,31.1,17.7z M19.5,14.7
			c-0.8,0-1.7,0-2.5,0c0,0.3,0,0.5,0,0.8c0.8,0,1.7,0,2.5,0C19.5,15.2,19.5,14.9,19.5,14.7z M31.1,31c-0.6,0.6-1.1,1.2-1.6,1.7
			c-0.1,0.1-0.1,0.2-0.1,0.3c0.6,0,1.1,0,1.7,0C31.1,32.4,31.1,31.8,31.1,31z M29.4,16.4c0,0.6,0,1.2,0,1.9c0.6-0.7,1.1-1.3,1.7-1.9
			C30.5,16.4,30,16.4,29.4,16.4z M33.8,13.8c-0.5-0.5-1-1-1.4-1.4c0,0.4,0,0.9,0,1.4C32.9,13.8,33.4,13.8,33.8,13.8z"/>
		<path d="M14.3,27.2c0,0.3,0,0.5,0,0.8c-0.3,0-0.5,0-0.8,0c0-0.3,0-0.5,0-0.8C13.8,27.2,14,27.2,14.3,27.2z"/>
		<path d="M13.1,29.3c-0.3,0-0.5,0-0.8,0c0-0.3,0-0.5,0-0.8c0.2,0,0.5,0,0.8,0C13.1,28.7,13.1,29,13.1,29.3z"/>
		<path d="M13.5,30.5c0-0.3,0-0.5,0-0.8c0.3,0,0.5,0,0.8,0c0,0.2,0,0.5,0,0.8C14.1,30.5,13.8,30.5,13.5,30.5z"/>
		<path d="M13.1,31c0,0.3,0,0.5,0,0.8c-0.2,0-0.5,0-0.8,0c0-0.2,0-0.5,0-0.8C12.5,31,12.8,31,13.1,31z"/>
		<path d="M12.2,34c0-0.3,0-0.5,0-0.8c0.3,0,0.5,0,0.8,0c0,0.2,0,0.5,0,0.8C12.8,34,12.5,34,12.2,34z"/>
		<path d="M13.1,25.8c0,0.3,0,0.5,0,0.8c-0.3,0-0.5,0-0.8,0c0-0.3,0-0.5,0-0.8C12.5,25.8,12.8,25.8,13.1,25.8z"/>
		<path d="M22.9,27.2c0,0.3,0,0.5,0,0.8c-0.3,0-0.5,0-0.8,0c0-0.3,0-0.5,0-0.8C22.4,27.2,22.6,27.2,22.9,27.2z"/>
		<path d="M21.7,28.8c0,0.3,0,0.5,0,0.8c-0.3,0-0.5,0-0.8,0c0-0.2,0-0.5,0-0.8C21.1,28.8,21.4,28.8,21.7,28.8z"/>
		<path d="M23.4,28.8c0.3,0,0.5,0,0.8,0c0,0.3,0,0.5,0,0.8c-0.2,0-0.5,0-0.8,0C23.4,29.4,23.4,29.1,23.4,28.8z"/>
		<path d="M18.6,19.8c0,0.3,0,0.5,0,0.8c-0.3,0-0.5,0-0.8,0c0-0.2,0-0.5,0-0.8C18.1,19.8,18.3,19.8,18.6,19.8z"/>
	</g>
</g>
</svg>
