<?xml version="1.0" encoding="utf-8"?>
<!-- Generator: Adobe Illustrator 27.5.0, SVG Export Plug-In . SVG Version: 6.00 Build 0)  -->
<svg version="1.1" id="Layer_1" xmlns="http://www.w3.org/2000/svg" xmlns:xlink="http://www.w3.org/1999/xlink" x="0px" y="0px"
	 viewBox="0 0 21 19" style="enable-background:new 0 0 21 19;" xml:space="preserve">
<style type="text/css">
	.st0{fill-rule:evenodd;clip-rule:evenodd;fill:#90E21B;}
</style>
<path class="st0" d="M12.3,16.8l7.3-12.6c0.7-1.2-0.1-2.6-1.5-2.6H3.6c-1.1,0-1.8,0.6-1.8,1.5c0,0.4,0.1,0.7,0.3,1l7.3,12.6
	c0.4,0.6,0.9,1,1.5,1C11.5,17.7,12,17.4,12.3,16.8L12.3,16.8z M10.6,16.1L3.4,3.6C3.3,3.4,3.3,3.3,3.3,3.3l0,0c0,0,0.1-0.1,0.3-0.1
	h14.5c0.2,0,0.3,0.1,0.3,0.1s0,0.1-0.1,0.3L11,16.1c-0.1,0.2-0.2,0.3-0.2,0.3S10.7,16.3,10.6,16.1L10.6,16.1z"/>
</svg>
